<svg xmlns="http://www.w3.org/2000/svg" xmlns:xlink="http://www.w3.org/1999/xlink" style="margin:auto;background:#dca365;display:block;z-index:1;position:relative" width="3000" height="399" preserveAspectRatio="xMidYMid" viewBox="0 0 3000 399">
<g transform="translate(1500,199.5) scale(1,1) translate(-1500,-199.5)"><path d="M-100 96.51C-42.29 87.94 -44 95.97 10.34 95.97S66.39 79.58 120.69 79.58S177.98 79.7 231.03 79.7S288.87 85.26 341.38 85.26S396.55 92.54 451.72 92.54S508.87 77.68 562.07 77.68S618.58 76.94 672.41 76.94S728.01 80.59 782.76 80.59S839.14 73.21 893.1 73.21S950.05 93.5 1003.45 93.5S1059.9 74.23 1113.79 74.23S1170.91 95.45 1224.14 95.45S1279.85 83.97 1334.48 83.97S1390.72 75.71 1444.83 75.71S1501.41 90.14 1555.17 90.14S1612.07 97.4 1665.52 97.4S1723.21 85.31 1775.86 85.31S1832.25 73.05 1886.21 73.05S1942.65 97.43 1996.55 97.43S2053.41 84.35 2106.9 84.35S2164.76 79.51 2217.24 79.51S2273.47 74.2 2327.59 74.2S2383.75 89.77 2437.93 89.77S2494.42 92.42 2548.28 92.42S2605.52 77.18 2658.62 77.18S2715.43 85.48 2768.97 85.48S2824.67 80.03 2879.31 80.03S2936.07 77.26 2989.66 77.26S3046.04 90.86 3100 90.86S3156.01 82.05 3210.34 82.05L3100 399 L-100 399 Z" fill="#ffd3a3" stroke-width="0">
  <animate attributeName="d" dur="25s" repeatCount="indefinite" values="M-100 96.51C-42.29 87.94 -44 95.97 10.34 95.97S66.39 79.58 120.69 79.58S177.98 79.7 231.03 79.7S288.87 85.26 341.38 85.26S396.55 92.54 451.72 92.54S508.87 77.68 562.07 77.68S618.58 76.94 672.41 76.94S728.01 80.59 782.76 80.59S839.14 73.21 893.1 73.21S950.05 93.5 1003.45 93.5S1059.9 74.23 1113.79 74.23S1170.91 95.45 1224.14 95.45S1279.85 83.97 1334.48 83.97S1390.72 75.71 1444.83 75.71S1501.41 90.14 1555.17 90.14S1612.07 97.4 1665.52 97.4S1723.21 85.31 1775.86 85.31S1832.25 73.05 1886.21 73.05S1942.65 97.43 1996.55 97.43S2053.41 84.35 2106.9 84.35S2164.76 79.51 2217.24 79.51S2273.47 74.2 2327.59 74.2S2383.75 89.77 2437.93 89.77S2494.42 92.42 2548.28 92.42S2605.52 77.18 2658.62 77.18S2715.43 85.48 2768.97 85.48S2824.67 80.03 2879.31 80.03S2936.07 77.26 2989.66 77.26S3046.04 90.86 3100 90.86S3156.01 82.05 3210.34 82.05L3100 399 L-100 399 Z;M-100 94.31C-42.39 75.15 -42.12 82.84 10.34 82.84S67.79 87.41 120.69 87.41S178.21 94.01 231.03 94.01S286.56 89.72 341.38 89.72S398.96 96.3 451.72 96.3S508.5 77.03 562.07 77.03S619.06 88.28 672.41 88.28S728.68 94.11 782.76 94.11S839.92 97.08 893.1 97.08S949.59 83.74 1003.45 83.74S1059.56 83.67 1113.79 83.67S1170.94 95.81 1224.14 95.81S1280.91 72 1334.48 72S1390 98.44 1444.83 98.44S1501.18 89.13 1555.17 89.13S1612.07 92.29 1665.52 92.29S1722.93 87 1775.86 87S1832.78 91.34 1886.21 91.34S1941.49 82.88 1996.55 82.88S2052.83 83.09 2106.9 83.09S2164.34 91.78 2217.24 91.78S2274.06 90.64 2327.59 90.64S2383.28 90.81 2437.93 90.81S2495.07 98.14 2548.28 98.14S2603.8 78.53 2658.62 78.53S2715.99 95.76 2768.97 95.76S2824.42 74.32 2879.31 74.32S2936.29 94.7 2989.66 94.7S3047.21 97.87 3100 97.87S3156.36 76.62 3210.34 76.62L3100 399 L-100 399 Z;M-100 96.51C-42.29 87.94 -44 95.97 10.34 95.97S66.39 79.58 120.69 79.58S177.98 79.7 231.03 79.7S288.87 85.26 341.38 85.26S396.55 92.54 451.72 92.54S508.87 77.68 562.07 77.68S618.58 76.94 672.41 76.94S728.01 80.59 782.76 80.59S839.14 73.21 893.1 73.21S950.05 93.5 1003.45 93.5S1059.9 74.23 1113.79 74.23S1170.91 95.45 1224.14 95.45S1279.85 83.97 1334.48 83.97S1390.72 75.71 1444.83 75.71S1501.41 90.14 1555.17 90.14S1612.07 97.4 1665.52 97.4S1723.21 85.31 1775.86 85.31S1832.25 73.05 1886.21 73.05S1942.65 97.43 1996.55 97.43S2053.41 84.35 2106.9 84.35S2164.76 79.51 2217.24 79.51S2273.47 74.2 2327.59 74.2S2383.75 89.77 2437.93 89.77S2494.42 92.42 2548.28 92.42S2605.52 77.18 2658.62 77.18S2715.43 85.48 2768.97 85.48S2824.67 80.03 2879.31 80.03S2936.07 77.26 2989.66 77.26S3046.04 90.86 3100 90.86S3156.01 82.05 3210.34 82.05L3100 399 L-100 399 Z"></animate>
  <animateTransform attributeName="transform" type="translate" dur="25s" begin="0s" repeatCount="indefinite" values="0;10;0" calcMode="spline" keySplines="0.3 0 0.7 1;0.3 0 0.7 1"></animateTransform>
</path><path d="M-100 119.91C-41.69 101.03 -40.47 125.19 16.36 125.19S75.75 103.69 132.73 103.69S193.52 114.8 249.09 114.8S309.43 111.99 365.45 111.99S426.32 140.02 481.82 140.02S542.57 121.65 598.18 121.65S658.85 122.32 714.55 122.32S774.81 108.18 830.91 108.18S891.46 138.88 947.27 138.88S1006.55 117.96 1063.64 117.96S1122.31 121.08 1180 121.08S1239 132.66 1296.36 132.66S1356.12 123.07 1412.73 123.07S1472.28 103.48 1529.09 103.48S1588.71 126.96 1645.45 126.96S1705.77 101.72 1761.82 101.72S1821.69 115.36 1878.18 115.36S1938.35 111.43 1994.55 111.43S2054.41 139.79 2110.91 139.79S2169.71 107.11 2227.27 107.11S2287.68 126.93 2343.64 126.93S2402.96 120.15 2460 120.15S2518.83 139.8 2576.36 139.8S2636.93 102.56 2692.73 102.56S2752.96 139.65 2809.09 139.65S2869.91 119.19 2925.45 119.19S2986.11 101.78 3041.82 101.78S3100.81 118.97 3158.18 118.97L3100 399 L-100 399 Z" fill="#cdd194" stroke-width="0">
  <animate attributeName="d" dur="20s" repeatCount="indefinite" values="M-100 119.91C-41.69 101.03 -40.47 125.19 16.36 125.19S75.75 103.69 132.73 103.69S193.52 114.8 249.09 114.8S309.43 111.99 365.45 111.99S426.32 140.02 481.82 140.02S542.57 121.65 598.18 121.65S658.85 122.32 714.55 122.32S774.81 108.18 830.91 108.18S891.46 138.88 947.27 138.88S1006.55 117.96 1063.64 117.96S1122.31 121.08 1180 121.08S1239 132.66 1296.36 132.66S1356.12 123.07 1412.73 123.07S1472.28 103.48 1529.09 103.48S1588.71 126.96 1645.45 126.96S1705.77 101.72 1761.82 101.72S1821.69 115.36 1878.18 115.36S1938.35 111.43 1994.55 111.43S2054.41 139.79 2110.91 139.79S2169.71 107.11 2227.27 107.11S2287.68 126.93 2343.64 126.93S2402.96 120.15 2460 120.15S2518.83 139.8 2576.36 139.8S2636.93 102.56 2692.73 102.56S2752.96 139.65 2809.09 139.65S2869.91 119.19 2925.45 119.19S2986.11 101.78 3041.82 101.78S3100.81 118.97 3158.18 118.97L3100 399 L-100 399 Z;M-100 113.23C-40.65 102.75 -41.67 133.84 16.36 133.84S74.8 102.55 132.73 102.55S193.32 121.13 249.09 121.13S309.6 140.6 365.45 140.6S424.69 126.35 481.82 126.35S542.55 102.59 598.18 102.59S658.97 140.89 714.55 140.89S774.03 121.43 830.91 121.43S891.34 135.59 947.27 135.59S1006.22 113.16 1063.64 113.16S1122.22 130.4 1180 130.4S1239.19 110.12 1296.36 110.12S1356.51 119.16 1412.73 119.16S1470.93 98.67 1529.09 98.67S1587.43 120.32 1645.45 120.32S1704.62 115.9 1761.82 115.9S1822.2 110.1 1878.18 110.1S1938.05 104.28 1994.55 104.28S2052.9 138.27 2110.91 138.27S2170.23 109.98 2227.27 109.98S2286.57 136.62 2343.64 136.62S2404.29 123.89 2460 123.89S2519.46 115.45 2576.36 115.45S2634.59 113.08 2692.73 113.08S2752.6 120.69 2809.09 120.69S2868.02 135.36 2925.45 135.36S2985.93 130.91 3041.82 130.91S3101.27 98.39 3158.18 98.39L3100 399 L-100 399 Z;M-100 119.91C-41.69 101.03 -40.47 125.19 16.36 125.19S75.75 103.69 132.73 103.69S193.52 114.8 249.09 114.8S309.43 111.99 365.45 111.99S426.32 140.02 481.82 140.02S542.57 121.65 598.18 121.65S658.85 122.32 714.55 122.32S774.81 108.18 830.91 108.18S891.46 138.88 947.27 138.88S1006.55 117.96 1063.64 117.96S1122.31 121.08 1180 121.08S1239 132.66 1296.36 132.66S1356.12 123.07 1412.73 123.07S1472.28 103.48 1529.09 103.48S1588.71 126.96 1645.45 126.96S1705.77 101.72 1761.82 101.72S1821.69 115.36 1878.18 115.36S1938.35 111.43 1994.55 111.43S2054.41 139.79 2110.91 139.79S2169.71 107.11 2227.27 107.11S2287.68 126.93 2343.64 126.93S2402.96 120.15 2460 120.15S2518.83 139.8 2576.36 139.8S2636.93 102.56 2692.73 102.56S2752.96 139.65 2809.09 139.65S2869.91 119.19 2925.45 119.19S2986.11 101.78 3041.82 101.78S3100.81 118.97 3158.18 118.97L3100 399 L-100 399 Z"></animate>
  <animateTransform attributeName="transform" type="translate" dur="20s" begin="-4s" repeatCount="indefinite" values="0;10;0" calcMode="spline" keySplines="0.3 0 0.7 1;0.3 0 0.7 1"></animateTransform>
</path><path d="M-100 142.04C-37.62 148.23 -37.15 168.29 23.08 168.29S85.31 131.76 146.15 131.76S208.26 174.22 269.23 174.22S332.95 140.08 392.31 140.08S454.47 176 515.38 176S579.34 124.99 638.46 124.99S701.13 160.27 761.54 160.27S824.26 144.22 884.62 144.22S948.08 133.05 1007.69 133.05S1070.93 135.58 1130.77 135.58S1193.84 172.88 1253.85 172.88S1315.71 166.85 1376.92 166.85S1439.54 160.48 1500 160.48S1561.99 123.17 1623.08 123.17S1685.14 160.03 1746.15 160.03S1809.29 127.62 1869.23 127.62S1931.83 168.17 1992.31 168.17S2055.27 168.67 2115.38 168.67S2178.05 171.83 2238.46 171.83S2302.01 180.02 2361.54 180.02S2424.12 176.78 2484.62 176.78S2547.65 145.01 2607.69 145.01S2669.5 162.43 2730.77 162.43S2793.87 175.36 2853.85 175.36S2915.82 124.77 2976.92 124.77S3040.84 135.13 3100 135.13S3162.81 175.47 3223.08 175.47L3100 399 L-100 399 Z" fill="#99cb9b" stroke-width="0">
  <animate attributeName="d" dur="15s" repeatCount="indefinite" values="M-100 142.04C-37.62 148.23 -37.15 168.29 23.08 168.29S85.31 131.76 146.15 131.76S208.26 174.22 269.23 174.22S332.95 140.08 392.31 140.08S454.47 176 515.38 176S579.34 124.99 638.46 124.99S701.13 160.27 761.54 160.27S824.26 144.22 884.62 144.22S948.08 133.05 1007.69 133.05S1070.93 135.58 1130.77 135.58S1193.84 172.88 1253.85 172.88S1315.71 166.85 1376.92 166.85S1439.54 160.48 1500 160.48S1561.99 123.17 1623.08 123.17S1685.14 160.03 1746.15 160.03S1809.29 127.62 1869.23 127.62S1931.83 168.17 1992.31 168.17S2055.27 168.67 2115.38 168.67S2178.05 171.83 2238.46 171.83S2302.01 180.02 2361.54 180.02S2424.12 176.78 2484.62 176.78S2547.65 145.01 2607.69 145.01S2669.5 162.43 2730.77 162.43S2793.87 175.36 2853.85 175.36S2915.82 124.77 2976.92 124.77S3040.84 135.13 3100 135.13S3162.81 175.47 3223.08 175.47L3100 399 L-100 399 Z;M-100 125.75C-35.87 149.78 -36.76 164.89 23.08 164.89S85.05 168.87 146.15 168.87S209.9 180.26 269.23 180.26S332.51 145.21 392.31 145.21S456.32 183.2 515.38 183.2S579.4 165.04 638.46 165.04S702.12 176.18 761.54 176.18S824.76 169.97 884.62 169.97S948.27 165.42 1007.69 165.42S1070.06 140.96 1130.77 140.96S1194.5 169.42 1253.85 169.42S1315.69 162.96 1376.92 162.96S1440.29 160.38 1500 160.38S1562.26 124 1623.08 124S1685.01 146.09 1746.15 146.09S1808.82 149.7 1869.23 149.7S1931.99 183.96 1992.31 183.96S2054.99 157.85 2115.38 157.85S2177.01 169.92 2238.46 169.92S2301.75 129.8 2361.54 129.8S2423.11 157.51 2484.62 157.51S2546.92 146.96 2607.69 146.96S2671.92 146.94 2730.77 146.94S2794.58 144.15 2853.85 144.15S2917.31 160.12 2976.92 160.12S3040.12 124.19 3100 124.19S3162.45 168.38 3223.08 168.38L3100 399 L-100 399 Z;M-100 142.04C-37.62 148.23 -37.15 168.29 23.08 168.29S85.31 131.76 146.15 131.76S208.26 174.22 269.23 174.22S332.95 140.08 392.31 140.08S454.47 176 515.38 176S579.34 124.99 638.46 124.99S701.13 160.27 761.54 160.27S824.26 144.22 884.62 144.22S948.08 133.05 1007.69 133.05S1070.93 135.58 1130.77 135.58S1193.84 172.88 1253.85 172.88S1315.71 166.85 1376.92 166.85S1439.54 160.48 1500 160.48S1561.99 123.17 1623.08 123.17S1685.14 160.03 1746.15 160.03S1809.29 127.62 1869.23 127.62S1931.83 168.17 1992.31 168.17S2055.27 168.67 2115.38 168.67S2178.05 171.83 2238.46 171.83S2302.01 180.02 2361.54 180.02S2424.12 176.78 2484.62 176.78S2547.65 145.01 2607.69 145.01S2669.5 162.43 2730.77 162.43S2793.87 175.36 2853.85 175.36S2915.82 124.77 2976.92 124.77S3040.84 135.13 3100 135.13S3162.81 175.47 3223.08 175.47L3100 399 L-100 399 Z"></animate>
  <animateTransform attributeName="transform" type="translate" dur="15s" begin="-6s" repeatCount="indefinite" values="0;10;0" calcMode="spline" keySplines="0.3 0 0.7 1;0.3 0 0.7 1"></animateTransform>
</path><path d="M-100 162.45C-33.72 158.98 -34.67 212.53 30.61 212.53S95.93 171.38 161.22 171.38S228.67 219.15 291.84 219.15S359.62 164.67 422.45 164.67S488.83 151.61 553.06 151.61S620.03 152.84 683.67 152.84S749.78 148.87 814.29 148.87S880.29 153.3 944.9 153.3S1011.61 219.58 1075.51 219.58S1142.78 166.18 1206.12 166.18S1273.27 215.67 1336.73 215.67S1402.85 149.99 1467.35 149.99S1533.4 205.04 1597.96 205.04S1665.55 155.54 1728.57 155.54S1795.13 211.66 1859.18 211.66S1926.6 174.88 1989.8 174.88S2057.11 204.22 2120.41 204.22S2186.76 151.54 2251.02 151.54S2318.2 157.9 2381.63 157.9S2449.22 203.97 2512.24 203.97S2578.03 222.3 2642.86 222.3S2709.95 148.73 2773.47 148.73S2841.36 216.95 2904.08 216.95S2969.7 166.03 3034.69 166.03S3102.32 214.96 3165.31 214.96L3100 399 L-100 399 Z" fill="#6dc0ae" stroke-width="0">
  <animate attributeName="d" dur="10s" repeatCount="indefinite" values="M-100 162.45C-33.72 158.98 -34.67 212.53 30.61 212.53S95.93 171.38 161.22 171.38S228.67 219.15 291.84 219.15S359.62 164.67 422.45 164.67S488.83 151.61 553.06 151.61S620.03 152.84 683.67 152.84S749.78 148.87 814.29 148.87S880.29 153.3 944.9 153.3S1011.61 219.58 1075.51 219.58S1142.78 166.18 1206.12 166.18S1273.27 215.67 1336.73 215.67S1402.85 149.99 1467.35 149.99S1533.4 205.04 1597.96 205.04S1665.55 155.54 1728.57 155.54S1795.13 211.66 1859.18 211.66S1926.6 174.88 1989.8 174.88S2057.11 204.22 2120.41 204.22S2186.76 151.54 2251.02 151.54S2318.2 157.9 2381.63 157.9S2449.22 203.97 2512.24 203.97S2578.03 222.3 2642.86 222.3S2709.95 148.73 2773.47 148.73S2841.36 216.95 2904.08 216.95S2969.7 166.03 3034.69 166.03S3102.32 214.96 3165.31 214.96L3100 399 L-100 399 Z;M-100 206.72C-33.39 209.22 -33.95 169.08 30.61 169.08S96.3 156.85 161.22 156.85S228.71 224.95 291.84 224.95S359.51 202.54 422.45 202.54S487.92 221.3 553.06 221.3S620.01 156.26 683.67 156.26S749.3 220.85 814.29 220.85S881.33 150.38 944.9 150.38S1010.75 204.57 1075.51 204.57S1141.89 225.84 1206.12 225.84S1273.31 224.62 1336.73 224.62S1402.73 173.39 1467.35 173.39S1533.49 218.45 1597.96 218.45S1664.41 153.74 1728.57 153.74S1795.89 224.65 1859.18 224.65S1926.58 156.45 1989.8 156.45S2055.24 216.94 2120.41 216.94S2186.56 167.84 2251.02 167.84S2317.43 209.18 2381.63 209.18S2447.66 167.14 2512.24 167.14S2578.27 223.61 2642.86 223.61S2710.33 150.08 2773.47 150.08S2840.36 212.99 2904.08 212.99S2971 165.98 3034.69 165.98S3101.16 216.57 3165.31 216.57L3100 399 L-100 399 Z;M-100 162.45C-33.72 158.98 -34.67 212.53 30.61 212.53S95.93 171.38 161.22 171.38S228.67 219.15 291.84 219.15S359.62 164.67 422.45 164.67S488.83 151.61 553.06 151.61S620.03 152.84 683.67 152.84S749.78 148.87 814.29 148.87S880.29 153.3 944.9 153.3S1011.61 219.58 1075.51 219.58S1142.78 166.18 1206.12 166.18S1273.27 215.67 1336.73 215.67S1402.85 149.99 1467.35 149.99S1533.4 205.04 1597.96 205.04S1665.55 155.54 1728.57 155.54S1795.13 211.66 1859.18 211.66S1926.6 174.88 1989.8 174.88S2057.11 204.22 2120.41 204.22S2186.76 151.54 2251.02 151.54S2318.2 157.9 2381.63 157.9S2449.22 203.97 2512.24 203.97S2578.03 222.3 2642.86 222.3S2709.95 148.73 2773.47 148.73S2841.36 216.95 2904.08 216.95S2969.7 166.03 3034.69 166.03S3102.32 214.96 3165.31 214.96L3100 399 L-100 399 Z"></animate>
  <animateTransform attributeName="transform" type="translate" dur="10s" begin="-6s" repeatCount="indefinite" values="0;10;0" calcMode="spline" keySplines="0.3 0 0.7 1;0.3 0 0.7 1"></animateTransform>
</path><path d="M-100 192.65C-28.21 195.89 -28.74 267.18 39.13 267.18S111.31 253.09 178.26 253.09S248.19 259.51 317.39 259.51S389.66 258.98 456.52 258.98S528.16 243.8 595.65 243.8S665.37 264.55 734.78 264.55S806.93 245.55 873.91 245.55S945.23 194.62 1013.04 194.62S1083.5 242.63 1152.17 242.63S1221.85 243.05 1291.3 243.05S1361.85 257.52 1430.43 257.52S1500.9 193.98 1569.57 193.98S1640.08 254.34 1708.7 254.34S1778.3 245.66 1847.83 245.66S1919.96 185.61 1986.96 185.61S2057.16 198.79 2126.09 198.79S2196.41 246.09 2265.22 246.09S2335 182.37 2404.35 182.37S2476.28 256.44 2543.48 256.44S2614.27 176.18 2682.61 176.18S2754.64 265.69 2821.74 265.69S2892.03 183.09 2960.87 183.09S3032.86 186.57 3100 186.57S3171.67 192.11 3239.13 192.11L3100 399 L-100 399 Z" fill="#59b0c0" stroke-width="0">
  <animate attributeName="d" dur="5s" repeatCount="indefinite" values="M-100 192.65C-28.21 195.89 -28.74 267.18 39.13 267.18S111.31 253.09 178.26 253.09S248.19 259.51 317.39 259.51S389.66 258.98 456.52 258.98S528.16 243.8 595.65 243.8S665.37 264.55 734.78 264.55S806.93 245.55 873.91 245.55S945.23 194.62 1013.04 194.62S1083.5 242.63 1152.17 242.63S1221.85 243.05 1291.3 243.05S1361.85 257.52 1430.43 257.52S1500.9 193.98 1569.57 193.98S1640.08 254.34 1708.7 254.34S1778.3 245.66 1847.83 245.66S1919.96 185.61 1986.96 185.61S2057.16 198.79 2126.09 198.79S2196.41 246.09 2265.22 246.09S2335 182.37 2404.35 182.37S2476.28 256.44 2543.48 256.44S2614.27 176.18 2682.61 176.18S2754.64 265.69 2821.74 265.69S2892.03 183.09 2960.87 183.09S3032.86 186.57 3100 186.57S3171.67 192.11 3239.13 192.11L3100 399 L-100 399 Z;M-100 196.87C-29.21 182.56 -28.33 256.08 39.13 256.08S109.79 183.87 178.26 183.87S249.94 190.31 317.39 190.31S387.19 187.45 456.52 187.45S528 245.16 595.65 245.16S666.18 195.82 734.78 195.82S804.62 265.51 873.91 265.51S945.48 190.68 1013.04 190.68S1084.7 248.94 1152.17 248.94S1223.43 200.53 1291.3 200.53S1361.68 243.08 1430.43 243.08S1502 195.86 1569.57 195.86S1639.47 254.14 1708.7 254.14S1778.98 176.92 1847.83 176.92S1919.34 247.86 1986.96 247.86S2057.28 187.32 2126.09 187.32S2195.75 257.55 2265.22 257.55S2335.44 188.61 2404.35 188.61S2476.07 259.49 2543.48 259.49S2613.09 267.4 2682.61 267.4S2752.57 258.46 2821.74 258.46S2891.62 179.19 2960.87 179.19S3031.03 243.9 3100 243.9S3169.97 188.94 3239.13 188.94L3100 399 L-100 399 Z;M-100 192.65C-28.21 195.89 -28.74 267.18 39.13 267.18S111.31 253.09 178.26 253.09S248.19 259.51 317.39 259.51S389.66 258.98 456.52 258.98S528.16 243.8 595.65 243.8S665.37 264.55 734.78 264.55S806.93 245.55 873.91 245.55S945.23 194.62 1013.04 194.62S1083.5 242.63 1152.17 242.63S1221.85 243.05 1291.3 243.05S1361.85 257.52 1430.43 257.52S1500.9 193.98 1569.57 193.98S1640.08 254.34 1708.7 254.34S1778.3 245.66 1847.83 245.66S1919.96 185.61 1986.96 185.61S2057.16 198.79 2126.09 198.79S2196.41 246.09 2265.22 246.09S2335 182.37 2404.35 182.37S2476.28 256.44 2543.48 256.44S2614.27 176.18 2682.61 176.18S2754.64 265.69 2821.74 265.69S2892.03 183.09 2960.87 183.09S3032.86 186.57 3100 186.57S3171.67 192.11 3239.13 192.11L3100 399 L-100 399 Z"></animate>
  <animateTransform attributeName="transform" type="translate" dur="5s" begin="-4s" repeatCount="indefinite" values="0;10;0" calcMode="spline" keySplines="0.3 0 0.7 1;0.3 0 0.7 1"></animateTransform>
</path></g>
</svg>