<svg xmlns="http://www.w3.org/2000/svg" xmlns:xlink="http://www.w3.org/1999/xlink" style="margin:auto;background:#011427;display:block;z-index:1;position:relative" width="3000" height="399" preserveAspectRatio="xMidYMid" viewBox="0 0 3000 399">
<g transform="translate(1500,199.5) scale(1,1) translate(-1500,-199.5)"><path d="M-100 81.48C-44.46 76.43 -42.74 73.17 10.34 73.17S67.48 98.92 120.69 98.92S177.32 85.25 231.03 85.25S287.94 77.33 341.38 77.33S398.97 79.65 451.72 79.65S507.35 72.51 562.07 72.51S618.95 87.15 672.41 87.15S727.91 87.48 782.76 87.48S839.78 74.56 893.1 74.56S949.29 72.62 1003.45 72.62S1059.31 85.41 1113.79 85.41S1170.6 80.47 1224.14 80.47S1279.93 82.95 1334.48 82.95S1390.63 77.57 1444.83 77.57S1500.56 97.14 1555.17 97.14S1612.56 78.8 1665.52 78.8S1722.28 87.74 1775.86 87.74S1832.64 91.69 1886.21 91.69S1942.4 85.25 1996.55 85.25S2052.64 77.88 2106.9 77.88S2164.14 83.49 2217.24 83.49S2273.5 72.88 2327.59 72.88S2383.75 82.39 2437.93 82.39S2493.16 85.99 2548.28 85.99S2603.87 79.06 2658.62 79.06S2715.22 90.46 2768.97 90.46S2824.97 96.27 2879.31 96.27S2935.41 89.25 2989.66 89.25S3046.61 79.41 3100 79.41S3157.35 76.04 3210.34 76.04L3100 399 L-100 399 Z" fill="#93dbe9" stroke-width="0">
  <animate attributeName="d" dur="25s" repeatCount="indefinite" values="M-100 81.48C-44.46 76.43 -42.74 73.17 10.34 73.17S67.48 98.92 120.69 98.92S177.32 85.25 231.03 85.25S287.94 77.33 341.38 77.33S398.97 79.65 451.72 79.65S507.35 72.51 562.07 72.51S618.95 87.15 672.41 87.15S727.91 87.48 782.76 87.48S839.78 74.56 893.1 74.56S949.29 72.62 1003.45 72.62S1059.31 85.41 1113.79 85.41S1170.6 80.47 1224.14 80.47S1279.93 82.95 1334.48 82.95S1390.63 77.57 1444.83 77.57S1500.56 97.14 1555.17 97.14S1612.56 78.8 1665.52 78.8S1722.28 87.74 1775.86 87.74S1832.64 91.69 1886.21 91.69S1942.4 85.25 1996.55 85.25S2052.64 77.88 2106.9 77.88S2164.14 83.49 2217.24 83.49S2273.5 72.88 2327.59 72.88S2383.75 82.39 2437.93 82.39S2493.16 85.99 2548.28 85.99S2603.87 79.06 2658.62 79.06S2715.22 90.46 2768.97 90.46S2824.97 96.27 2879.31 96.27S2935.41 89.25 2989.66 89.25S3046.61 79.41 3100 79.41S3157.35 76.04 3210.34 76.04L3100 399 L-100 399 Z;M-100 83.96C-44.3 85.06 -42.77 75.89 10.34 75.89S65.94 72.1 120.69 72.1S176.8 85.74 231.03 85.74S288.82 88.94 341.38 88.94S398.12 90.16 451.72 90.16S508.21 96.05 562.07 96.05S618.31 88.84 672.41 88.84S730.19 89.82 782.76 89.82S839.55 94.45 893.1 94.45S948.9 94.3 1003.45 94.3S1060.97 79.6 1113.79 79.6S1169 73.39 1224.14 73.39S1281.64 93.54 1334.48 93.54S1391.65 84.25 1444.83 84.25S1501.52 72.07 1555.17 72.07S1611.03 72.25 1665.52 72.25S1722.48 91.02 1775.86 91.02S1831.91 85.08 1886.21 85.08S1942.34 94.22 1996.55 94.22S2052.39 74.12 2106.9 74.12S2164.36 85.33 2217.24 85.33S2272.61 96.95 2327.59 96.95S2385.33 89.34 2437.93 89.34S2493.83 88.99 2548.28 88.99S2605.04 92.63 2658.62 92.63S2715.11 83.6 2768.97 83.6S2825.73 82.19 2879.31 82.19S2936.21 81.88 2989.66 81.88S3045.89 75.9 3100 75.9S3156.24 73.74 3210.34 73.74L3100 399 L-100 399 Z;M-100 81.48C-44.46 76.43 -42.74 73.17 10.34 73.17S67.48 98.92 120.69 98.92S177.32 85.25 231.03 85.25S287.94 77.33 341.38 77.33S398.97 79.65 451.72 79.65S507.35 72.51 562.07 72.51S618.95 87.15 672.41 87.15S727.91 87.48 782.76 87.48S839.78 74.56 893.1 74.56S949.29 72.62 1003.45 72.62S1059.31 85.41 1113.79 85.41S1170.6 80.47 1224.14 80.47S1279.93 82.95 1334.48 82.95S1390.63 77.57 1444.83 77.57S1500.56 97.14 1555.17 97.14S1612.56 78.8 1665.52 78.8S1722.28 87.74 1775.86 87.74S1832.64 91.69 1886.21 91.69S1942.4 85.25 1996.55 85.25S2052.64 77.88 2106.9 77.88S2164.14 83.49 2217.24 83.49S2273.5 72.88 2327.59 72.88S2383.75 82.39 2437.93 82.39S2493.16 85.99 2548.28 85.99S2603.87 79.06 2658.62 79.06S2715.22 90.46 2768.97 90.46S2824.97 96.27 2879.31 96.27S2935.41 89.25 2989.66 89.25S3046.61 79.41 3100 79.41S3157.35 76.04 3210.34 76.04L3100 399 L-100 399 Z"></animate>
  <animateTransform attributeName="transform" type="translate" dur="25s" begin="0s" repeatCount="indefinite" values="0;10;0" calcMode="spline" keySplines="0.3 0 0.7 1;0.3 0 0.7 1"></animateTransform>
</path><path d="M-100 102.85C-40.38 106.57 -39.42 108.8 16.36 108.8S76.03 107.72 132.73 107.72S191.1 114.48 249.09 114.48S308.16 99.82 365.45 99.82S425.39 128.36 481.82 128.36S542.45 100.9 598.18 100.9S658.49 130.36 714.55 130.36S773.19 108.32 830.91 108.32S889.86 131.31 947.27 131.31S1008.16 103.97 1063.64 103.97S1124.28 140.62 1180 140.62S1239.44 114.02 1296.36 114.02S1355.58 119.53 1412.73 119.53S1471.41 115.26 1529.09 115.26S1589.24 140.91 1645.45 140.91S1705.14 113.93 1761.82 113.93S1821.41 105.03 1878.18 105.03S1938.34 119.01 1994.55 119.01S2053.45 129.65 2110.91 129.65S2169.23 124.47 2227.27 124.47S2285.83 123.69 2343.64 123.69S2403.81 122.22 2460 122.22S2519.01 137.32 2576.36 137.32S2634.63 114.29 2692.73 114.29S2751.72 140.53 2809.09 140.53S2869.01 116.22 2925.45 116.22S2985.63 124.55 3041.82 124.55S3100.21 105.43 3158.18 105.43L3100 399 L-100 399 Z" fill="#88cfe3" stroke-width="0">
  <animate attributeName="d" dur="20s" repeatCount="indefinite" values="M-100 102.85C-40.38 106.57 -39.42 108.8 16.36 108.8S76.03 107.72 132.73 107.72S191.1 114.48 249.09 114.48S308.16 99.82 365.45 99.82S425.39 128.36 481.82 128.36S542.45 100.9 598.18 100.9S658.49 130.36 714.55 130.36S773.19 108.32 830.91 108.32S889.86 131.31 947.27 131.31S1008.16 103.97 1063.64 103.97S1124.28 140.62 1180 140.62S1239.44 114.02 1296.36 114.02S1355.58 119.53 1412.73 119.53S1471.41 115.26 1529.09 115.26S1589.24 140.91 1645.45 140.91S1705.14 113.93 1761.82 113.93S1821.41 105.03 1878.18 105.03S1938.34 119.01 1994.55 119.01S2053.45 129.65 2110.91 129.65S2169.23 124.47 2227.27 124.47S2285.83 123.69 2343.64 123.69S2403.81 122.22 2460 122.22S2519.01 137.32 2576.36 137.32S2634.63 114.29 2692.73 114.29S2751.72 140.53 2809.09 140.53S2869.01 116.22 2925.45 116.22S2985.63 124.55 3041.82 124.55S3100.21 105.43 3158.18 105.43L3100 399 L-100 399 Z;M-100 101.92C-39.91 98.05 -40.19 129.33 16.36 129.33S76.44 116.78 132.73 116.78S192.43 135.45 249.09 135.45S308.74 97.45 365.45 97.45S424.42 128.26 481.82 128.26S542.51 112.33 598.18 112.33S657.26 129.35 714.55 129.35S773.66 103.4 830.91 103.4S891.68 123.96 947.27 123.96S1007.86 108.95 1063.64 108.95S1123.71 132.4 1180 132.4S1239.48 130.19 1296.36 130.19S1356.94 123.55 1412.73 123.55S1471.3 110.69 1529.09 110.69S1587.57 121.37 1645.45 121.37S1705.56 120.69 1761.82 120.69S1821.76 122.47 1878.18 122.47S1939.04 123.38 1994.55 123.38S2055.11 136.2 2110.91 136.2S2170.1 115.36 2227.27 115.36S2285.52 117.29 2343.64 117.29S2404.17 121.68 2460 121.68S2518.73 133.99 2576.36 133.99S2635.74 116.46 2692.73 116.46S2751.53 97.5 2809.09 97.5S2869.58 117.21 2925.45 117.21S2985.05 126.65 3041.82 126.65S3102.28 117.07 3158.18 117.07L3100 399 L-100 399 Z;M-100 102.85C-40.38 106.57 -39.42 108.8 16.36 108.8S76.03 107.72 132.73 107.72S191.1 114.48 249.09 114.48S308.16 99.82 365.45 99.82S425.39 128.36 481.82 128.36S542.45 100.9 598.18 100.9S658.49 130.36 714.55 130.36S773.19 108.32 830.91 108.32S889.86 131.31 947.27 131.31S1008.16 103.97 1063.64 103.97S1124.28 140.62 1180 140.62S1239.44 114.02 1296.36 114.02S1355.58 119.53 1412.73 119.53S1471.41 115.26 1529.09 115.26S1589.24 140.91 1645.45 140.91S1705.14 113.93 1761.82 113.93S1821.41 105.03 1878.18 105.03S1938.34 119.01 1994.55 119.01S2053.45 129.65 2110.91 129.65S2169.23 124.47 2227.27 124.47S2285.83 123.69 2343.64 123.69S2403.81 122.22 2460 122.22S2519.01 137.32 2576.36 137.32S2634.63 114.29 2692.73 114.29S2751.72 140.53 2809.09 140.53S2869.01 116.22 2925.45 116.22S2985.63 124.55 3041.82 124.55S3100.21 105.43 3158.18 105.43L3100 399 L-100 399 Z"></animate>
  <animateTransform attributeName="transform" type="translate" dur="20s" begin="-4s" repeatCount="indefinite" values="0;10;0" calcMode="spline" keySplines="0.3 0 0.7 1;0.3 0 0.7 1"></animateTransform>
</path><path d="M-100 134.73C-36.54 145.06 -37.25 159.25 23.08 159.25S85.57 149.94 146.15 149.94S210.24 127.2 269.23 127.2S331.18 146.75 392.31 146.75S455.03 171.05 515.38 171.05S578.14 128.74 638.46 128.74S702.33 179.21 761.54 179.21S823.52 141.97 884.62 141.97S948.44 148.26 1007.69 148.26S1070.28 139.4 1130.77 139.4S1194.68 183.3 1253.85 183.3S1318.08 174.52 1376.92 174.52S1440.89 162.59 1500 162.59S1563.09 147.81 1623.08 147.81S1685.98 170.7 1746.15 170.7S1809.87 122.92 1869.23 122.92S1932.59 177.96 1992.31 177.96S2055.25 178.16 2115.38 178.16S2178.84 172.54 2238.46 172.54S2301.27 126.41 2361.54 126.41S2424.68 166.06 2484.62 166.06S2547.41 176.4 2607.69 176.4S2671.29 170.94 2730.77 170.94S2794.05 141.99 2853.85 141.99S2915.51 166.18 2976.92 166.18S3041.1 162.05 3100 162.05S3162.57 179.42 3223.08 179.42L3100 399 L-100 399 Z" fill="#7ec2dc" stroke-width="0">
  <animate attributeName="d" dur="15s" repeatCount="indefinite" values="M-100 134.73C-36.54 145.06 -37.25 159.25 23.08 159.25S85.57 149.94 146.15 149.94S210.24 127.2 269.23 127.2S331.18 146.75 392.31 146.75S455.03 171.05 515.38 171.05S578.14 128.74 638.46 128.74S702.33 179.21 761.54 179.21S823.52 141.97 884.62 141.97S948.44 148.26 1007.69 148.26S1070.28 139.4 1130.77 139.4S1194.68 183.3 1253.85 183.3S1318.08 174.52 1376.92 174.52S1440.89 162.59 1500 162.59S1563.09 147.81 1623.08 147.81S1685.98 170.7 1746.15 170.7S1809.87 122.92 1869.23 122.92S1932.59 177.96 1992.31 177.96S2055.25 178.16 2115.38 178.16S2178.84 172.54 2238.46 172.54S2301.27 126.41 2361.54 126.41S2424.68 166.06 2484.62 166.06S2547.41 176.4 2607.69 176.4S2671.29 170.94 2730.77 170.94S2794.05 141.99 2853.85 141.99S2915.51 166.18 2976.92 166.18S3041.1 162.05 3100 162.05S3162.57 179.42 3223.08 179.42L3100 399 L-100 399 Z;M-100 146.62C-36.64 142.21 -36.14 171.61 23.08 171.61S86.33 140.01 146.15 140.01S208.94 159.39 269.23 159.39S332.67 145.43 392.31 145.43S455.17 182.56 515.38 182.56S579.46 146.12 638.46 146.12S702.16 170.7 761.54 170.7S825 142.56 884.62 142.56S947.64 174.47 1007.69 174.47S1070.52 124.87 1130.77 124.87S1192.7 170.97 1253.85 170.97S1318.08 138.16 1376.92 138.16S1439.51 175.5 1500 175.5S1563.16 138.09 1623.08 138.09S1685.54 167.13 1746.15 167.13S1807.72 126.34 1869.23 126.34S1931.06 171.58 1992.31 171.58S2056.49 164.46 2115.38 164.46S2178.46 161.71 2238.46 161.71S2302.43 143.86 2361.54 143.86S2425.48 162.45 2484.62 162.45S2547.23 134.64 2607.69 134.64S2670.86 160.6 2730.77 160.6S2793.3 127.77 2853.85 127.77S2915.48 172.49 2976.92 172.49S3040.61 139.5 3100 139.5S3163.72 162.27 3223.08 162.27L3100 399 L-100 399 Z;M-100 134.73C-36.54 145.06 -37.25 159.25 23.08 159.25S85.57 149.94 146.15 149.94S210.24 127.2 269.23 127.2S331.18 146.75 392.31 146.75S455.03 171.05 515.38 171.05S578.14 128.74 638.46 128.74S702.33 179.21 761.54 179.21S823.52 141.97 884.62 141.97S948.44 148.26 1007.69 148.26S1070.28 139.4 1130.77 139.4S1194.68 183.3 1253.85 183.3S1318.08 174.52 1376.92 174.52S1440.89 162.59 1500 162.59S1563.09 147.81 1623.08 147.81S1685.98 170.7 1746.15 170.7S1809.87 122.92 1869.23 122.92S1932.59 177.96 1992.31 177.96S2055.25 178.16 2115.38 178.16S2178.84 172.54 2238.46 172.54S2301.27 126.41 2361.54 126.41S2424.68 166.06 2484.62 166.06S2547.41 176.4 2607.69 176.4S2671.29 170.94 2730.77 170.94S2794.05 141.99 2853.85 141.99S2915.51 166.18 2976.92 166.18S3041.1 162.05 3100 162.05S3162.57 179.42 3223.08 179.42L3100 399 L-100 399 Z"></animate>
  <animateTransform attributeName="transform" type="translate" dur="15s" begin="-6s" repeatCount="indefinite" values="0;10;0" calcMode="spline" keySplines="0.3 0 0.7 1;0.3 0 0.7 1"></animateTransform>
</path><path d="M-100 172.92C-33.93 160.62 -33.93 215.12 30.61 215.12S96.94 160.26 161.22 160.26S229.09 201.52 291.84 201.52S358.16 160.98 422.45 160.98S487.77 207.89 553.06 207.89S620.68 167.62 683.67 167.62S749.41 217.28 814.29 217.28S880.33 148.54 944.9 148.54S1012.66 220.45 1075.51 220.45S1142.52 166.57 1206.12 166.57S1272.84 217.39 1336.73 217.39S1404.75 207.41 1467.35 207.41S1534.63 225.74 1597.96 225.74S1664.38 160.46 1728.57 160.46S1795.89 204.42 1859.18 204.42S1926.61 163.13 1989.8 163.13S2056.2 223.04 2120.41 223.04S2188.26 152.09 2251.02 152.09S2316.66 217.56 2381.63 217.56S2448.19 166.7 2512.24 166.7S2578.9 216.37 2642.86 216.37S2709.14 167.23 2773.47 167.23S2840.58 219.24 2904.08 219.24S2971.26 166.7 3034.69 166.7S3102.15 209.84 3165.31 209.84L3100 399 L-100 399 Z" fill="#75b5d5" stroke-width="0">
  <animate attributeName="d" dur="10s" repeatCount="indefinite" values="M-100 172.92C-33.93 160.62 -33.93 215.12 30.61 215.12S96.94 160.26 161.22 160.26S229.09 201.52 291.84 201.52S358.16 160.98 422.45 160.98S487.77 207.89 553.06 207.89S620.68 167.62 683.67 167.62S749.41 217.28 814.29 217.28S880.33 148.54 944.9 148.54S1012.66 220.45 1075.51 220.45S1142.52 166.57 1206.12 166.57S1272.84 217.39 1336.73 217.39S1404.75 207.41 1467.35 207.41S1534.63 225.74 1597.96 225.74S1664.38 160.46 1728.57 160.46S1795.89 204.42 1859.18 204.42S1926.61 163.13 1989.8 163.13S2056.2 223.04 2120.41 223.04S2188.26 152.09 2251.02 152.09S2316.66 217.56 2381.63 217.56S2448.19 166.7 2512.24 166.7S2578.9 216.37 2642.86 216.37S2709.14 167.23 2773.47 167.23S2840.58 219.24 2904.08 219.24S2971.26 166.7 3034.69 166.7S3102.15 209.84 3165.31 209.84L3100 399 L-100 399 Z;M-100 207.35C-33.76 214.46 -34.67 218.39 30.61 218.39S97.38 157.4 161.22 157.4S227.65 203.89 291.84 203.89S358.8 160.86 422.45 160.86S488.54 223.24 553.06 223.24S620.38 150.7 683.67 150.7S751.52 224.64 814.29 224.64S881.95 151.75 944.9 151.75S1011.09 199.67 1075.51 199.67S1140.86 151.29 1206.12 151.29S1273.92 214.24 1336.73 214.24S1404.46 149 1467.35 149S1534.31 209.29 1597.96 209.29S1664.43 152.07 1728.57 152.07S1794.02 210.18 1859.18 210.18S1926.21 154.73 1989.8 154.73S2057.53 208.58 2120.41 208.58S2188.34 161.22 2251.02 161.22S2318.15 201.76 2381.63 201.76S2448.92 155.63 2512.24 155.63S2580.02 216.05 2642.86 216.05S2710.31 165.58 2773.47 165.58S2840.07 222.61 2904.08 222.61S2969.56 164.61 3034.69 164.61S3102.21 209.31 3165.31 209.31L3100 399 L-100 399 Z;M-100 172.92C-33.93 160.62 -33.93 215.12 30.61 215.12S96.94 160.26 161.22 160.26S229.09 201.52 291.84 201.52S358.16 160.98 422.45 160.98S487.77 207.89 553.06 207.89S620.68 167.62 683.67 167.62S749.41 217.28 814.29 217.28S880.33 148.54 944.9 148.54S1012.66 220.45 1075.51 220.45S1142.52 166.57 1206.12 166.57S1272.84 217.39 1336.73 217.39S1404.75 207.41 1467.35 207.41S1534.63 225.74 1597.96 225.74S1664.38 160.46 1728.57 160.46S1795.89 204.42 1859.18 204.42S1926.61 163.13 1989.8 163.13S2056.2 223.04 2120.41 223.04S2188.26 152.09 2251.02 152.09S2316.66 217.56 2381.63 217.56S2448.19 166.7 2512.24 166.7S2578.9 216.37 2642.86 216.37S2709.14 167.23 2773.47 167.23S2840.58 219.24 2904.08 219.24S2971.26 166.7 3034.69 166.7S3102.15 209.84 3165.31 209.84L3100 399 L-100 399 Z"></animate>
  <animateTransform attributeName="transform" type="translate" dur="10s" begin="-6s" repeatCount="indefinite" values="0;10;0" calcMode="spline" keySplines="0.3 0 0.7 1;0.3 0 0.7 1"></animateTransform>
</path><path d="M-100 188.87C-29.43 182.91 -29.46 243.57 39.13 243.57S110.3 187.78 178.26 187.78S249.79 269.28 317.39 269.28S388.7 243.8 456.52 243.8S526.24 184.26 595.65 184.26S667.37 190.03 734.78 190.03S805.4 253.64 873.91 253.64S945.82 189.72 1013.04 189.72S1083.03 197.42 1152.17 197.42S1223.03 185.81 1291.3 185.81S1361.12 261.75 1430.43 261.75S1500.4 189.59 1569.57 189.59S1639.27 252 1708.7 252S1779.56 198.92 1847.83 198.92S1918.68 263.77 1986.96 263.77S2056.88 199.48 2126.09 199.48S2196.97 259.54 2265.22 259.54S2337.22 249.49 2404.35 249.49S2476.3 248.54 2543.48 248.54S2613.7 200.95 2682.61 200.95S2754.69 257.47 2821.74 257.47S2893.69 182.39 2960.87 182.39S3030.96 248.73 3100 248.73S3169.96 193.69 3239.13 193.69L3100 399 L-100 399 Z" fill="#6ea9cd" stroke-width="0">
  <animate attributeName="d" dur="5s" repeatCount="indefinite" values="M-100 188.87C-29.43 182.91 -29.46 243.57 39.13 243.57S110.3 187.78 178.26 187.78S249.79 269.28 317.39 269.28S388.7 243.8 456.52 243.8S526.24 184.26 595.65 184.26S667.37 190.03 734.78 190.03S805.4 253.64 873.91 253.64S945.82 189.72 1013.04 189.72S1083.03 197.42 1152.17 197.42S1223.03 185.81 1291.3 185.81S1361.12 261.75 1430.43 261.75S1500.4 189.59 1569.57 189.59S1639.27 252 1708.7 252S1779.56 198.92 1847.83 198.92S1918.68 263.77 1986.96 263.77S2056.88 199.48 2126.09 199.48S2196.97 259.54 2265.22 259.54S2337.22 249.49 2404.35 249.49S2476.3 248.54 2543.48 248.54S2613.7 200.95 2682.61 200.95S2754.69 257.47 2821.74 257.47S2893.69 182.39 2960.87 182.39S3030.96 248.73 3100 248.73S3169.96 193.69 3239.13 193.69L3100 399 L-100 399 Z;M-100 195.5C-29.03 198.42 -28.55 268.04 39.13 268.04S109.04 182.99 178.26 182.99S249.52 267.59 317.39 267.59S388.87 175.02 456.52 175.02S528.24 185.82 595.65 185.82S666.51 198.69 734.78 198.69S804.55 189.74 873.91 189.74S943.9 185.55 1013.04 185.55S1084.54 258.48 1152.17 258.48S1223.11 192.36 1291.3 192.36S1361.06 244.4 1430.43 244.4S1502.05 187.41 1569.57 187.41S1641.59 181.8 1708.7 181.8S1778.9 197.09 1847.83 197.09S1919.62 196.59 1986.96 196.59S2057.83 198.28 2126.09 198.28S2196.77 243.85 2265.22 243.85S2335.9 185.25 2404.35 185.25S2474.2 194.01 2543.48 194.01S2614.87 180.12 2682.61 180.12S2754.4 249.38 2821.74 249.38S2891.52 174.64 2960.87 174.64S3032.14 244.17 3100 244.17S3170.75 198.49 3239.13 198.49L3100 399 L-100 399 Z;M-100 188.87C-29.43 182.91 -29.46 243.57 39.13 243.57S110.3 187.78 178.26 187.78S249.79 269.28 317.39 269.28S388.7 243.8 456.52 243.8S526.24 184.26 595.65 184.26S667.37 190.03 734.78 190.03S805.4 253.64 873.91 253.64S945.82 189.72 1013.04 189.72S1083.03 197.42 1152.17 197.42S1223.03 185.81 1291.3 185.81S1361.12 261.75 1430.43 261.75S1500.4 189.59 1569.57 189.59S1639.27 252 1708.7 252S1779.56 198.92 1847.83 198.92S1918.68 263.77 1986.96 263.77S2056.88 199.48 2126.09 199.48S2196.97 259.54 2265.22 259.54S2337.22 249.49 2404.35 249.49S2476.3 248.54 2543.48 248.54S2613.7 200.95 2682.61 200.95S2754.69 257.47 2821.74 257.47S2893.69 182.39 2960.87 182.39S3030.96 248.73 3100 248.73S3169.96 193.69 3239.13 193.69L3100 399 L-100 399 Z"></animate>
  <animateTransform attributeName="transform" type="translate" dur="5s" begin="-4s" repeatCount="indefinite" values="0;10;0" calcMode="spline" keySplines="0.3 0 0.7 1;0.3 0 0.7 1"></animateTransform>
</path></g>
</svg>